<svg xmlns="http://www.w3.org/2000/svg" xmlns:xlink="http://www.w3.org/1999/xlink" viewBox="0 0 3561 1415"><defs><style>.cls-1,.cls-2{fill:none;stroke:#ccc;stroke-linecap:round;stroke-width:15px;}.cls-1{stroke-linejoin:round;}.cls-2{stroke-miterlimit:10;}.cls-3{fill:url(#radial-gradient);}.cls-4{fill:url(#radial-gradient-2);}.cls-5{opacity:0.5;fill:url(#radial-gradient-3);}</style><radialGradient id="radial-gradient" cx="153.01" cy="636.95" r="125.27" gradientUnits="userSpaceOnUse"><stop offset="0" stop-opacity="0.1"/><stop offset="1"/></radialGradient><radialGradient id="radial-gradient-2" cx="1351.57" cy="631.67" r="228.73" xlink:href="#radial-gradient"/><radialGradient id="radial-gradient-3" cx="2857.83" cy="710.82" r="686.57" xlink:href="#radial-gradient"/></defs><title>sphere-selector</title><g id="Layer_10" data-name="Layer 10"><path class="cls-1" d="M354.11,1202.1s1.1-37.47,1.1-69.42,0-57.3-3.3-82.65c-2.19-16.74-2.1-28.65-8.21-43.88"/><path class="cls-1" d="M155,772c-9,5-28.44-2.41-42.77-10.13s-17.63-2.2-39.67-4.4-34.16,0-44.07-19.84,2.2-30.85,11-35.26,9.91-5.51,20.93-11,17.63-1.1,37.47-2.2,14.32,2.2,44.08,11S181,714,181,714"/><path class="cls-2" d="M186,687c-3.31-19.83-11.51-24.85-19.22-31.46S133.61,624.53,127,608"/><path class="cls-1" d="M91,593s1,4,17.38,9.64c15.17,5.23,23.35,7.77,33.61,6.06"/><path class="cls-1" d="M96.26,520c-17.08-1.66-25.35,2.2-35.27,8.81-16.52,11-24.24,22-28.65,29.76s-8.85,27.34,0,37.46c7.72,8.82,25.35,9.92,43,5.51,20.76-5.19,26.45-22,28.65-35.26"/><path class="cls-1" d="M193.44,565.82c-5.83-6.45-10.41-11.57-12.33-13.87-11.57-13.77-11.57-13.77-28.85-19-3-.9-6.74-2-11-3.17"/><path class="cls-1" d="M243,620s-17.79-19.37-33-36"/><path class="cls-1" d="M29.59,566.83s3.3-17.63,18.73-27.55c11.32-7.27,15.43-5.51,19.84-2.2s3.3,6.61,3.3,6.61-14.32,1.1-24.24,5.51S29.59,566.83,29.59,566.83Z"/><path class="cls-1" d="M202.27,545.51a49.79,49.79,0,0,1-5.83-18.08"/><path class="cls-1" d="M246.67,616.42s6.36-9.65-9.77-28.25"/><path class="cls-1" d="M165.68,518.9c7.7,1.15,27,8.26,38,8.26"/><path class="cls-1" d="M94.05,491.35s4.41-12.12,22-19.84,32-7.71,32-7.71-4.41-11-13.23-11-16.52,5.51-25.34,14.32S94.05,491.35,94.05,491.35Z"/><path class="cls-1" d="M203.14,663.25C195.43,671,188.82,671,186.62,682s-2.21,20.94-6.62,37.47c-7.47,28-19.83,50.69-25.34,55.1s6.06,18.18,18.18,31.4,23.14,30.86,40.77,65,70,82.08,85.95,98.07c23.7,23.69,28.1,39.12,57.86,36.91s58.95-14.87,58.95-14.87"/><path class="cls-1" d="M378,726c13.22-30.85,38.37-65.51,38.37-65.51"/><path class="cls-1" d="M494.61,973.45s-51.79,13.22-92.57-7.72-57.3-51.79-61.7-90.36c-1.06-9.28-.45-21.56,1.66-34.37"/><path class="cls-1" d="M236.9,588.17c16.13,18.6,9.77,28.25,9.77,28.25-8.81,12.12-9.52,13.79-17.63,22"/><path class="cls-3" d="M263.31,576.1c-16.6,10.53-42,18.32-61.27,2.3-18.92-15.77.54-34.14,10.24-52.93A124.91,124.91,0,0,0,171.67,512a85.83,85.83,0,0,1-17,12.39c-7.71,4.4-28.65,6.61-45.18,1.1a36,36,0,0,1-8.12-3.8A125.65,125.65,0,1,0,210.55,748a40.24,40.24,0,0,1-.24-29.05c8.95-25.24,32.95-34.23,58.21-33.2a125.85,125.85,0,0,0-5.21-109.6Z"/><path class="cls-1" d="M269,479c-13.35-24.79-19.46-26.6-29.49-29.53-26.45-7.71-47.47-14-61.71-17.63-19.28-5-20.39-1.65-30.85,2.21-12.5,4.6-29.76,26.44-38.57,36.36S93,491.35,91.85,500.16,93,520,109.48,525.51s37.47,3.3,45.18-1.1a86.65,86.65,0,0,0,23.69-19.29"/><path class="cls-1" d="M414.17,855.54c-25.35,1.1-59.7-10.44-74.94-16.53-27.54-11-42.42-23.69-75.48-42.43s-65.56-43.52-53.44-77.68,51.79-38.57,84.85-28.65,54.32,20.82,75.48,31.4c26.45,13.23,35.26,36.37,50.69,28.65"/><path class="cls-1" d="M264.85,693s17.63,6.61,28.65,17.63,9.92,20.94,7.72,26.45a132.26,132.26,0,0,1-14.33,28.65c-6.57,10.22-16.11,17.63-18.73,17.63-5.51,0-38.57-15.43-38.57-15.43S212,747,225.18,721.65,264.85,693,264.85,693Z"/><path class="cls-1" d="M289,560s3.95,13.44,35.91,32.17,56.2,5.51,56.2,5.51"/><path class="cls-1" d="M332.07,550.85c-11,5.51-17.63,5.51-31.95,7.72S283,558,283,558"/><path class="cls-1" d="M197.63,554.16a48.26,48.26,0,0,1,20.94-14.33c13.23-4.41,32-5.51,32-5.51s-1.1-14.32-6.61-17.63c-11-6.61-26.68,5.08-32,11C203.14,537.63,197.63,554.16,197.63,554.16Z"/><path class="cls-1" d="M612.52,1168.49s-17.38-71.68-25.9-106.34c-3.79-15.42-5.5-37-9.92-61.71-5.51-30.85-14.87-57.85-23.14-80.44a312.25,312.25,0,0,0-14.32-34.16c-5.51-11-6.62-22-10.47-42.42-4.18-22.09-24.24-44.08-32-60.61C492,772.4,483.18,742,473.12,705.12c-5.92-21.7-13.45-39.79-17.63-67.21-5-32.51-13.78-43.53-35.81-68.88-18.41-21.16-40.73-52.47-52.35-66.66-9.91-12.12-12.12-17.63-34.16-29.76-16.41-9-28.86-3.9-41.87,1.11-14.33,5.51-35.26,11-48.49,17.63-11,5.51-19.83,11-29.2,31.4-9.06,19.73-31.4,39.12-11.57,55.65s46.28,7.71,62.81-3.31c9.43-6.28,15.54-16.15,20.94-23.14"/><path class="cls-1" d="M1260.72,788.9a16.28,16.28,0,0,1-9.9-.87c-14.33-5.51-31.86-19.13-44.08-22-11.57-2.76-50.14-17.08-70-27s-61.71-41.87-49.59-67.22,44.08-13.22,59.51-4.41,22,14.33,36.36,19.84,23.14,5.51,32,8.81,20.93,11,34.16,15.43,19.83,7.71,29.75,6.61a27.45,27.45,0,0,0,7.26-1.72"/><path class="cls-1" d="M1289.94,669.57c-8.82-13.23-19.84-22-27.55-35.27s-13.22-24.24-23.14-33-32-30.86-52.89-46.29-39.67-29.75-49.59-45.17,1.1-38.57,15.43-48.49,35.26-5.51,54,12.12,35.26,36.37,47.38,45.18,29.76,18.73,39.67,32,26.45,36.36,39.67,55.09c6.46,9.15,14,19.08,20.47,27.62"/><path class="cls-1" d="M1362.67,604.55c-5.17-11.81-13.23-23.14-19.84-37.46-6.43-13.94-13.22-40.78-22-55.1s-34.16-43-48.48-61.71-39.67-43-46.28-57.3,5.5-37.47,20.93-44.08,34.16-7.71,56.2,12.12,32,34.16,40.77,46.28,28.65,36.37,37.47,46.29,14.32,18.73,17.63,27.54,27.55,71.63,35.26,92.57c3.29,8.92,4.91,14.38,7.31,21.3"/><path class="cls-1" d="M1438.7,1207.31a841.54,841.54,0,0,0,1.1-91.46c-1.81-39.84-2.08-69.71-5.2-96.85"/><path class="cls-1" d="M1645.82,922.25c10,32.67,17.91,60.59,24.29,104.35,7.71,52.89,28.65,143.25,28.65,143.25"/><path class="cls-1" d="M1523,997.39c-22,5.51-51.24,22.59-64.47,23.7-28.88,2.4-33-6.62-45.17-23.15s-36.37-40.77-59.51-66.11c-23.69-26-35.26-46.28-48.49-71.63s-22-35.26-35.26-51.79-7.16-24.79-.55-40.22"/><path class="cls-1" d="M1281.12,734.58c5.51-26.45,24.24-41.87,8.82-65"/><path class="cls-1" d="M1335.12,650.83c14.32-13.22,35.26-28.65,27.55-46.28"/><path class="cls-1" d="M1658.61,873c-2.45,14.75-6.39,23.53-8.89,31.86-6.61,22-12.12,34.16-26.45,57.3"/><path class="cls-1" d="M1425.48,599c7.38-1.23,20.93-3.3,25.34-7.71s2.76-12.67,1.65-17.08c-1.55-6.23-8.81-15.43-13.22-29.75-4.51-14.67-7.16-29.21-11.57-39.12s-16.53-29.75-25.34-40.77-28.65-35.27-39.67-52.9-3.31-37.46,13.22-46.28,33.06-5.51,52.89,7.71,29.75,24.25,36.37,35.27S1474,426,1485,437.06s20.94,23.14,27.55,43c3.82,11.46,12.67,43.53,18.18,64.47,4.91,18.65,14.53,37,16.53,43,5.08,15.24,17.09,51.26,26.78,82.71"/><path class="cls-1" d="M1645.31,885c18.74-9.92,29.76-38.57,29.2-62.26-.38-16.64-16.53-36.43-31.53-46.07"/><path class="cls-1" d="M1548.15,808.65c.49,8.11,1.47,15.15,2.95,26.21,1.8,13.51,5,25.89,12.67,38,9.85,15.48,26.45,25.35,47.38,23.15"/><path class="cls-4" d="M1521.35,764.33c-2.21-18.73,6.61-45.18,19.83-66.11,13.11-20.77,19.73-25.27,36-28.57a229.73,229.73,0,0,0,3.16-38c0-126.33-102.41-228.73-228.73-228.73s-228.73,102.4-228.73,228.73S1225.25,860.4,1351.57,860.4a228.22,228.22,0,0,0,173.91-80.18A59.68,59.68,0,0,1,1521.35,764.33Z"/><path class="cls-1" d="M1548.89,756.62s23.14-15.43,37.47-38.57,12.12-34.16,12.12-34.16,8.82,12.12,12.12,24.24a45.46,45.46,0,0,1-4.41,34.16c-5.51,9.92-13.22,26.45-32,26.45S1548.89,756.62,1548.89,756.62Z"/><path class="cls-1" d="M1641.6,776c-1.1-12.12-3.45-28.2-9-40.32s-11-13.22-14.32-19.83-12.13-27.55-17.64-35.26-6.61-14.33-23.14-11-23.14,7.71-36.36,28.65-22,47.38-19.83,66.11,13.77,42.43,51.24,55.65"/><circle class="cls-5" cx="2857.83" cy="710.82" r="686.57"/><path class="cls-1" d="M3103.46,1175s-19.83-83.75-24.24-105.79-12.12-57.3-16.53-74.93-7.71-23.14,1.1-44.08,25.35-41.87,37.47-52.89,15.43-22,19.83-30.85,5.53-12.14,17.08-17.08,21.25-7.24,36.37-11c17.63-4.41,26.61-16.41,44.07-23.14,11-4.25,18.42-3,28.65-5.51,26.45-6.62,34.72-19.29,32.51-39.12s-19.83-34.16-61.71-38.57-83.74,9.92-106.88,22-36.37,28.65-49.59,36.36-23.14,3.31-46.28-9.92-44.08-40.77-57.3-67.21-23.15-62.81-32-91.46-13.22-73.83-16.53-93.67-11-29.75-17.63-52.89S2871,400.35,2863.24,373.9s-23.14-36.37-37.47-38.57-34.16,8.82-33.06,28.65,6.62,44.08,13.23,71.63,14.32,52.89,19.83,72.73,5.51,49.58,11,76,12.12,36.36,13.23,47.38-8.82,18.74-11,17.63-14.33-43-18.74-60.6-7.71-40.77-16.53-57.3-18.73-36.37-33.05-68.32-25.35-72.73-34.16-92.57-24.25-31.95-44.08-25.34-23.14,27.55-17.63,47.38,26.44,78.24,38.57,110.2,22,72.72,28.65,93.66,24.24,61.71,25.34,71.63-9.92,20.93-11,23.14-5.51,7.71-12.12-2.21-35.26-70.52-45.18-78.23-43-38.57-56.2-57.31-43-63.91-52.89-73.83-20.94-11-32-4.4-26.45,25.34-11,47.38,38.57,58.4,57.3,82.65,57.3,76,70.53,94.76,27,29.16,27,44.63c0,11-5,18.18-11.57,29.2s-23.14,6.61-39.67,2.21-25.34-8.82-55.09-18.74-76-34.16-93.67-43-28.65-1.1-34.16,5.51-9.92,18.73,5.51,33.06A238.31,238.31,0,0,0,2547,800.35c32,13.22,92.57,37.47,113.5,49.59,8.91,5.15,15.4,14.72,22.59,22.59,9.72,10.63,19.7,20.17,29.2,30.3,16.53,17.63,20.68,35.73,45.18,65,22.59,27,49,41.33,64.47,59,8.52,9.75,13.63,18,18.73,23.14,4.41,4.41,7.4,6.63,9.92,9.92,2.22,2.9,3.19,6.47,4.4,11,4.41,16.52,4.41,26.44,6.06,64.46,1.11,25.42,1.11,86,1.11,86"/><path class="cls-1" d="M2840.65,1049.94c5.51,6.61,15.43,14.32,39.67,6.61"/><path class="cls-1" d="M2841.36,648.83c-5.12,3.31-12.83,6.61-17.24,8.82"/><path class="cls-1" d="M2683.07,872.53c-8.81-9.92-14.32-19.84-12.12-33.06"/><circle class="cls-5" cx="2857.83" cy="710.82" r="686.57"/></g></svg>