<svg xmlns="http://www.w3.org/2000/svg" viewBox="0 0 1594 467"><defs><style>.cls-1{fill:#fff;}</style></defs><title>hsd-logos</title><g id="color"><g id="fbm"><path class="cls-1" d="M1318.84,6.62h15.64l-5.5,11h-15.64l5.5-11Zm56.16-1v265h-40V61.53l-11,22.09h-16.48l11.41-23H1335v-10h-10.86L1335,28.85V5.62Zm-62.29,45h-16.48l11.59-23h16.3l-11.41,23Zm-10.28,43h16.48l-11.41,23H1291l11.41-23Zm-6.23-10h-16.48l11.4-23h16.48l-11.4,23Zm-10.28,43h16.48l-11.59,23h-16.3l11.41-23Zm-6.25-10h-16.48l11.41-23h16.48l-11.41,23Zm-10.28,43h16.49l-11.59,23H1257.8l11.59-23Zm-6.41-10h-16.31l11.42-23h16.48l-11.59,23Zm-10.1,44h16.48l-11.59,23h-16.48l11.59-23Zm-6.43-11H1230l11.59-23H1258l-11.59,23Zm-10.09,44h16.3l-11.41,23h-16.48l11.59-23Zm-78-220h15.47l-5.33,11h-15.64l5.5-11Zm61.24,253h13.56l-5.49,11H1174V61.53l-11,22.09h-16.48l11.59-23H1174v-10h-10.63L1174,28.85V5.62h40v210.1l11-22.1h16.48l-11.59,23H1214v10h10.58L1214,248.14v23l5.56-11.48Zm-67.37-209h-16.48l11.41-23h16.48l-11.41,23Zm-10.27,43h16.48l-11.59,23h-16.48l11.59-23Zm-6.43-10h-16.3l11.41-23h16.48l-11.59,23Zm-10.1,43h16.3l-11.41,23H1113.8l11.59-23Zm-6.42-10h-16.48l11.6-23h16.48l-11.6,23Zm-10.27,43h16.48l-11.41,23h-16.48l11.41-23Zm-6.25-10H1086l11.59-23H1114l-11.59,23Zm-10.28,44h16.48l-11.4,23h-16.48l11.4-23Zm-6.23-11h-16.48l11.59-23h16.3l-11.41,23Zm-10.28,44h16.48l-11.41,23h-16.48l11.41-23Zm-22.66,21v23l5.5-11h15.64l-5.5,11H1014V5.62h40v210.1l11-22.1h16.48l-11.41,23H1053v10h10.53l-10.53,21Z"/><polygon class="cls-1" points="1014 381.62 1014 337.62 1044 337.62 1044 344.62 1023 344.62 1023 355.62 1041 355.62 1041 362.62 1023 362.62 1023 381.62 1014 381.62 1014 381.62"/><path class="cls-1" d="M1069,365.82q-1.62.54-5.12,1.3a15.24,15.24,0,0,0-4.58,1.46,3.52,3.52,0,0,0-1.64,3,4.16,4.16,0,0,0,1.31,3.05,4.63,4.63,0,0,0,3.36,1.28,7.27,7.27,0,0,0,4.34-1.5,5.31,5.31,0,0,0,2-2.78,17,17,0,0,0,.33-4.1v-1.68Zm-10.9-7.28-7.4-1.38a11.92,11.92,0,0,1,4.29-6.82q3-2.22,9-2.22,5.45,0,8.12,1.34a8.21,8.21,0,0,1,3.76,3.38c.72,1.36,1.08,3.88,1.08,7.53l-.08,9.81a34.36,34.36,0,0,0,.39,6.18,17.52,17.52,0,0,0,1.46,4.26h-8.06c-.21-.55-.47-1.38-.78-2.48-.14-.5-.24-.83-.29-1a14.61,14.61,0,0,1-4.47,3.15,12.6,12.6,0,0,1-5.07,1,10.32,10.32,0,0,1-7.5-2.66,9,9,0,0,1-2.74-6.74,9.19,9.19,0,0,1,1.25-4.8,8.26,8.26,0,0,1,3.49-3.23,26.71,26.71,0,0,1,6.48-2,44.56,44.56,0,0,0,7.92-2.06v-.84a4.47,4.47,0,0,0-1.16-3.46c-.78-.69-2.24-1-4.38-1a5.67,5.67,0,0,0-3.39.88,6.08,6.08,0,0,0-2,3.1Z"/><path class="cls-1" d="M1112.94,358.7l-8.28,1.5a6.13,6.13,0,0,0-1.9-3.74,5.77,5.77,0,0,0-3.85-1.25,6.24,6.24,0,0,0-5,2.16q-1.87,2.17-1.88,7.26c0,3.77.64,6.44,1.9,8A6.25,6.25,0,0,0,1099,375a5.68,5.68,0,0,0,3.92-1.37,8.16,8.16,0,0,0,2.15-4.68l8.26,1.4a14.66,14.66,0,0,1-4.94,8.6q-3.64,2.89-9.78,2.89-7,0-11.12-4.39t-4.14-12.19q0-7.86,4.16-12.25t11.25-4.38c3.87,0,6.94.83,9.24,2.5a13.78,13.78,0,0,1,4.91,7.61Z"/><path class="cls-1" d="M1127,337.62v15.27a13.08,13.08,0,0,1,15.31-3.69,8.74,8.74,0,0,1,3.59,2.75,10,10,0,0,1,1.66,3.71A32.3,32.3,0,0,1,1148,362v18.64h-8V363.84c0-3.33-.16-5.45-.51-6.34a4.33,4.33,0,0,0-1.82-2.15,6.2,6.2,0,0,0-3.26-.79,7.87,7.87,0,0,0-4,1,6.09,6.09,0,0,0-2.59,3.06,17.6,17.6,0,0,0-.81,6.06v16.92h-8v-44Z"/><path class="cls-1" d="M1164.74,364.51q0,4.94,1.56,7.3a6.64,6.64,0,0,0,5.81,3.35,5.94,5.94,0,0,0,4.74-2.38q2-2.37,2-7.5,0-5.43-2-7.85a6.23,6.23,0,0,0-5-2.4,6.33,6.33,0,0,0-5,2.34q-2,2.36-2,7.14ZM1156,381.62v-44h9V353a11.23,11.23,0,0,1,9-4.43,12.38,12.38,0,0,1,9.6,4.2c2.55,2.81,3.81,6.83,3.81,12.08,0,5.42-1.29,9.61-3.87,12.54a12.12,12.12,0,0,1-9.42,4.39,11.53,11.53,0,0,1-5.36-1.36,27,27,0,0,1-4.78-4v5.2Z"/><path class="cls-1" d="M1213.07,362.62a8.09,8.09,0,0,0-1.88-5.55,6.1,6.1,0,0,0-8.92.1,7.78,7.78,0,0,0-1.77,5.45Zm-.47,8.35,8.37,1.42a13.69,13.69,0,0,1-5.1,7,15,15,0,0,1-8.72,2.41c-5.53,0-9.61-1.8-12.27-5.41a18.26,18.26,0,0,1-3.14-11q0-7.89,4.13-12.37a13.6,13.6,0,0,1,10.44-4.48q7.1,0,11.19,4.69t3.92,14.34h-21.06a8.51,8.51,0,0,0,2,5.83,6.4,6.4,0,0,0,4.85,2.07,5.13,5.13,0,0,0,3.32-1.08,6.6,6.6,0,0,0,2-3.47Z"/><path class="cls-1" d="M1237,381.62h-9v-32h8v4.21a10.51,10.51,0,0,1,3.34-4.23,6.65,6.65,0,0,1,3.63-1,10.6,10.6,0,0,1,5.53,1.59l-2.59,7.32a7.49,7.49,0,0,0-4-1.37,4.67,4.67,0,0,0-3,1,6.76,6.76,0,0,0-1.94,3.52c-.46,1.7-.69,5.25,0,10.65v10.35Z"/><path class="cls-1" d="M1271,362.62a8.14,8.14,0,0,0-1.88-5.55,6.1,6.1,0,0,0-8.92.1,7.78,7.78,0,0,0-1.77,5.45Zm-.48,8.35,8.38,1.42a13.69,13.69,0,0,1-5.1,7,15,15,0,0,1-8.73,2.41q-8.3,0-12.26-5.41a18.2,18.2,0,0,1-3.15-11q0-7.89,4.14-12.37a13.59,13.59,0,0,1,10.44-4.48c4.72,0,8.46,1.57,11.19,4.69s4,7.9,3.92,14.34h-21.07a8.52,8.52,0,0,0,2,5.83,6.37,6.37,0,0,0,4.84,2.07,5.16,5.16,0,0,0,3.33-1.08,6.52,6.52,0,0,0,2-3.47Z"/><path class="cls-1" d="M1286,381.62v-32h8v32Zm0-37v-8h8v8Z"/><path class="cls-1" d="M1331,358.7l-8.29,1.5a5.93,5.93,0,0,0-1.9-3.74,5.72,5.72,0,0,0-3.85-1.25,6.27,6.27,0,0,0-5,2.16c-1.24,1.45-1.87,3.87-1.87,7.26,0,3.77.64,6.44,1.91,8A6.21,6.21,0,0,0,1317,375a5.68,5.68,0,0,0,3.92-1.37,8.16,8.16,0,0,0,2.15-4.68l8.26,1.4a14.71,14.71,0,0,1-4.94,8.6q-3.65,2.89-9.78,2.89-7,0-11.12-4.39t-4.15-12.19q0-7.86,4.16-12.25t11.26-4.38c3.86,0,7,.83,9.23,2.5a13.84,13.84,0,0,1,4.92,7.61Z"/><path class="cls-1" d="M1345,337.62v15.27a13.08,13.08,0,0,1,15.31-3.69,8.85,8.85,0,0,1,3.6,2.75,10.09,10.09,0,0,1,1.65,3.71A32.3,32.3,0,0,1,1366,362v18.64h-8V363.84a25.4,25.4,0,0,0-.47-6.34,4.16,4.16,0,0,0-1.68-2.15,5.38,5.38,0,0,0-3-.79,6.85,6.85,0,0,0-3.71,1,5.83,5.83,0,0,0-2.38,3.06,18.33,18.33,0,0,0-.76,6.06l-1,16.92h-8v-44Z"/><polygon class="cls-1" points="1392 381.62 1392 337.62 1405.7 337.62 1413.43 367.63 1421.09 337.62 1434 337.62 1434 381.62 1426 381.62 1426 346.99 1417.54 381.62 1408.44 381.62 1400 346.99 1400 381.62 1392 381.62 1392 381.62"/><path class="cls-1" d="M1461.72,362.62a8,8,0,0,0-1.88-5.55,6.09,6.09,0,0,0-8.91.1,7.74,7.74,0,0,0-1.77,5.45Zm-.47,8.35,8.37,1.42a13.63,13.63,0,0,1-5.1,7,15,15,0,0,1-8.72,2.41c-5.52,0-9.62-1.8-12.27-5.41a18.26,18.26,0,0,1-3.14-11q0-7.89,4.13-12.37a13.6,13.6,0,0,1,10.44-4.48q7.1,0,11.2,4.69t3.92,14.34H1449a8.56,8.56,0,0,0,2,5.83,6.37,6.37,0,0,0,4.85,2.07,5.11,5.11,0,0,0,3.32-1.08,6.6,6.6,0,0,0,2-3.47Z"/><path class="cls-1" d="M1483.63,364.51c0,3.39.48,5.84,1.41,7.36a6.35,6.35,0,0,0,5.69,3.29,6.21,6.21,0,0,0,4.94-2.47q2-2.46,2-7.37,0-5.47-2-7.89a6.26,6.26,0,0,0-5.06-2.4,6.33,6.33,0,0,0-5,2.37c-1.34,1.59-2,4-2,7.11ZM1506,381.62h-9v-5.2c0,1.82-1.56,3.17-3.33,4.05a11.75,11.75,0,0,1-5.34,1.33,12.12,12.12,0,0,1-9.38-4.41Q1475,373,1475,365.08q0-8.08,3.8-12.29a12.4,12.4,0,0,1,9.61-4.2c3.56,0,9.55,4.43,9.55,4.43v-15.4h8v44Z"/><path class="cls-1" d="M1515,381.62v-32h8v32Zm0-37v-8h8v8Z"/><path class="cls-1" d="M1550.28,362.62a8.09,8.09,0,0,0-1.89-5.55,5.78,5.78,0,0,0-4.37-1.89,5.85,5.85,0,0,0-4.55,2,7.78,7.78,0,0,0-1.76,5.45Zm-.48,8.35,8.38,1.42a13.74,13.74,0,0,1-5.1,7,15,15,0,0,1-8.73,2.41c-5.53,0-9.61-1.8-12.27-5.41a18.26,18.26,0,0,1-3.14-11q0-7.89,4.13-12.37a13.6,13.6,0,0,1,10.44-4.48c4.73,0,8.47,1.57,11.19,4.69s4,7.9,3.93,14.34h-21.07a8.56,8.56,0,0,0,2,5.83,6.4,6.4,0,0,0,4.85,2.07,5.16,5.16,0,0,0,3.33-1.08,6.65,6.65,0,0,0,2-3.47Z"/><path class="cls-1" d="M1594,381.62h-8V365.4a25.51,25.51,0,0,0-.53-6.65,4.68,4.68,0,0,0-1.73-2.35,4.89,4.89,0,0,0-2.88-.84,6.58,6.58,0,0,0-3.87,1.2,6,6,0,0,0-2.35,3.17,27.86,27.86,0,0,0-.64,7.3v14.39h-8v-32h7v4.7a12.81,12.81,0,0,1,15.45-4.41,8.58,8.58,0,0,1,3.46,2.58,9.43,9.43,0,0,1,1.63,3.56,26.43,26.43,0,0,1,.46,5.68v19.89Z"/><polygon class="cls-1" points="1014 454.62 1014 410.62 1044 410.62 1044 415.62 1020 415.62 1020 429.62 1041 429.62 1041 434.62 1020 434.62 1020 454.62 1014 454.62 1014 454.62"/><path class="cls-1" d="M1071,438.69a40.09,40.09,0,0,1-8.79,2,20.4,20.4,0,0,0-4.71,1.08,4.71,4.71,0,0,0-1.24,7.9,7,7,0,0,0,4.77,1.44,11.14,11.14,0,0,0,5.55-1.37,8.45,8.45,0,0,0,3.56-3.72,13.22,13.22,0,0,0,.86-5.39v-2Zm1,12a20.22,20.22,0,0,1-5.76,3.59,16.86,16.86,0,0,1-5.94,1q-5.23,0-8-2.56a8.41,8.41,0,0,1-2.81-6.54,8.58,8.58,0,0,1,1.07-4.26,8.75,8.75,0,0,1,2.77-3.1,13.07,13.07,0,0,1,3.88-1.76,38,38,0,0,1,4.79-.81,49.11,49.11,0,0,0,9.6-1.86c0-.73,0-1.2,0-1.4q0-3.3-1.52-4.64c-1.38-1.22-3.42-1.82-6.14-1.82q-3.81,0-5.61,1.33a8.16,8.16,0,0,0-2.68,4.71l-5.27-.72a13,13,0,0,1,2.37-5.46,10.42,10.42,0,0,1,4.76-3.2,21.15,21.15,0,0,1,7.21-1.13,19.25,19.25,0,0,1,6.61,1,8.85,8.85,0,0,1,3.74,2.41,8.47,8.47,0,0,1,1.68,3.67,30.26,30.26,0,0,1,.27,5v7.18a76.43,76.43,0,0,0,.34,9.5,12.17,12.17,0,0,0,1.36,3.81h-5.62a11.12,11.12,0,0,1-1.08-3.91Z"/><path class="cls-1" d="M1105.61,443l5.3.68a13.74,13.74,0,0,1-4.44,8.57,13,13,0,0,1-8.79,3.1,13.68,13.68,0,0,1-10.49-4.26q-4-4.27-4-12.22a22.13,22.13,0,0,1,1.7-9,11.92,11.92,0,0,1,5.2-5.79,15.45,15.45,0,0,1,7.58-1.93,13.16,13.16,0,0,1,8.47,2.62,12,12,0,0,1,4.22,7.44l-5.24.81a8.7,8.7,0,0,0-2.64-4.82,6.86,6.86,0,0,0-4.6-1.62,8.37,8.37,0,0,0-6.61,2.92c-1.69,1.95-2.55,5-2.55,9.23s.82,7.37,2.46,9.31a8,8,0,0,0,6.4,2.9,7.58,7.58,0,0,0,5.3-1.94,9.64,9.64,0,0,0,2.69-6Z"/><path class="cls-1" d="M1136,454.62v-4.89a11.68,11.68,0,0,1-10.11,5.39,12.83,12.83,0,0,1-5.26-1.08,8.54,8.54,0,0,1-3.64-2.7,10.15,10.15,0,0,1-1.66-4,26.35,26.35,0,0,1-.33-5V422.62h6v17.63a31.66,31.66,0,0,0,.32,5.69,5.69,5.69,0,0,0,2.16,3.33,6.69,6.69,0,0,0,4.08,1.22,8.88,8.88,0,0,0,4.55-1.25,6.85,6.85,0,0,0,3-3.38,16.91,16.91,0,0,0,.88-6.2v-17h5v32Z"/><polygon class="cls-1" points="1150 454.62 1150 410.62 1155 410.62 1155 454.62 1150 454.62 1150 454.62"/><path class="cls-1" d="M1174.05,449.4l.72,4.75a16.71,16.71,0,0,1-3.79.48,8.06,8.06,0,0,1-4.24-.92,5,5,0,0,1-2.12-2.44q-.61-1.51-.62-6.36V426.62h-4v-4h4v-7.86l5-3.23v11.09h6v4h-6v18.59a10.36,10.36,0,0,0,.26,3,2.23,2.23,0,0,0,.87,1.05,3.16,3.16,0,0,0,1.72.38,15,15,0,0,0,2.2-.2Z"/><path class="cls-1" d="M1180,466.65l-.6-5.06a11.91,11.91,0,0,0,3.08.47,6,6,0,0,0,2.88-.59,5,5,0,0,0,1.76-1.68,25.49,25.49,0,0,0,1.64-4c.1-.3.27-.74.48-1.32l-12-31.84h5.8l6.61,18.41c.87,2.34,1.63,4.79,2.31,7.36a75,75,0,0,1,2.21-7.24l6.8-18.53h5.38l-12.09,32.32a61.84,61.84,0,0,1-3,7.22,10.59,10.59,0,0,1-3.29,3.9,7.79,7.79,0,0,1-4.43,1.25,10.71,10.71,0,0,1-3.47-.66Z"/><path class="cls-1" d="M1228.38,438.75c0,4.07.89,7.11,2.67,9.14a8.87,8.87,0,0,0,13.37,0c1.77-2,2.67-5.14,2.67-9.3,0-3.94-.9-6.91-2.68-8.94a8.9,8.9,0,0,0-13.36,0q-2.67,3-2.67,9.14Zm-5.53,0q0-8.83,4.91-13.09a14.79,14.79,0,0,1,10-3.53,14.3,14.3,0,0,1,10.72,4.3q4.15,4.29,4.15,11.86c0,4.09-.6,7.31-1.84,9.66a13,13,0,0,1-5.35,5.46,15.68,15.68,0,0,1-7.68,1.94,14.34,14.34,0,0,1-10.79-4.27q-4.11-4.29-4.11-12.33Z"/><path class="cls-1" d="M1260,454.62v-28h-5v-4h5v-3.37a16,16,0,0,1,.53-4.77,6.88,6.88,0,0,1,2.56-3.39,8.67,8.67,0,0,1,5.12-1.3,22.8,22.8,0,0,1,4.68.54l-.75,4.69a15.72,15.72,0,0,0-3-.3,4.15,4.15,0,0,0-3.23,1.06c-.64.69-1,2-1,3.91v2.93h7v4h-7v28Z"/><path class="cls-1" d="M1293,454.62v-44h7.48l11.13,31.16q1.55,4.35,2.25,6.51c.53-1.6,1.37-4,2.5-7.05l11.27-30.62H1336v44h-6V417.8l-13.67,36.82h-3.72L1299,417.16v37.46Z"/><path class="cls-1" d="M1348.12,435.62h17.74a10.79,10.79,0,0,0-2-6,8.27,8.27,0,0,0-6.67-3.11,8.58,8.58,0,0,0-6.25,2.49,9.82,9.82,0,0,0-2.79,6.64Zm17.68,9.28,5.57.69a13.53,13.53,0,0,1-4.88,7.57,14.68,14.68,0,0,1-9.1,2.69q-7,0-11.05-4.29t-4.09-12.05c0-5.35,1.38-9.49,4.13-12.45a14,14,0,0,1,10.71-4.43,13.56,13.56,0,0,1,10.42,4.35q4,4.33,4,12.21c0,.31,0,.79,0,1.43h-23.71c.21,3.49,1.2,6.17,3,8a8.77,8.77,0,0,0,6.64,2.78,8.21,8.21,0,0,0,5.06-1.56,10.21,10.21,0,0,0,3.32-5Z"/><path class="cls-1" d="M1381.73,438.77c0,4.07.85,7.12,2.57,9.13a7.76,7.76,0,0,0,6.07,3,7.6,7.6,0,0,0,6-2.89c1.65-1.92,2.47-4.85,2.47-8.81q0-6.53-2.51-9.57a7.72,7.72,0,0,0-6.2-3,7.46,7.46,0,0,0-6,2.93q-2.4,2.93-2.4,9.24ZM1399,454.62v-4s-5.22,4.73-9.14,4.73a12.47,12.47,0,0,1-7-2.1,13.77,13.77,0,0,1-4.93-5.84,20.2,20.2,0,0,1-1.76-8.64,22.71,22.71,0,0,1,1.59-8.63,12.54,12.54,0,0,1,4.76-5.94,12.78,12.78,0,0,1,7.1-2.07,10.55,10.55,0,0,1,5.11,1.22,25.7,25.7,0,0,1,4.26,3.15V410.62h5v44Z"/><path class="cls-1" d="M1412,454.62v-32h5v32Zm0-38v-6h5v6Z"/><path class="cls-1" d="M1446,438.69a40.06,40.06,0,0,1-8.8,2,20.42,20.42,0,0,0-4.7,1.08,4.65,4.65,0,0,0-2.12,1.75,4.76,4.76,0,0,0,.88,6.15,7,7,0,0,0,4.77,1.44,11.1,11.1,0,0,0,5.54-1.37,8.4,8.4,0,0,0,3.56-3.72,13,13,0,0,0,.87-5.39v-2Zm1,12a20.26,20.26,0,0,1-5.77,3.59,16.77,16.77,0,0,1-5.93,1c-3.5,0-6.18-.85-8.06-2.56a8.45,8.45,0,0,1-2.81-6.54,8.68,8.68,0,0,1,1.06-4.26,8.8,8.8,0,0,1,2.79-3.1,13,13,0,0,1,3.87-1.76,38.7,38.7,0,0,1,4.79-.81,49.25,49.25,0,0,0,9.61-1.86c0-.73,0-1.2,0-1.4q0-3.3-1.52-4.64c-1.38-1.22-3.42-1.82-6.14-1.82q-3.8,0-5.61,1.33a8.1,8.1,0,0,0-2.67,4.71l-5.28-.72a13.27,13.27,0,0,1,2.37-5.46,10.47,10.47,0,0,1,4.76-3.2,21.15,21.15,0,0,1,7.21-1.13,19.25,19.25,0,0,1,6.61,1,8.76,8.76,0,0,1,3.75,2.41,8.58,8.58,0,0,1,1.67,3.67,30.26,30.26,0,0,1,.27,5v7.18a75.63,75.63,0,0,0,.35,9.5,11.92,11.92,0,0,0,1.36,3.81h-5.63a11.33,11.33,0,0,1-1.07-3.91Z"/></g><g id="hsd"><path class="cls-1" d="M568,224.05a99.1,99.1,0,0,0,23.42,9.69,97.87,97.87,0,0,0,26,3.41,96.18,96.18,0,0,0,38.42-7.72A98.53,98.53,0,0,0,708.22,177a99.46,99.46,0,0,0,0-76.84,100.48,100.48,0,0,0-21.1-31.43,98.69,98.69,0,0,0-31.33-21.18,96.18,96.18,0,0,0-38.42-7.72,98.28,98.28,0,0,0-26,3.41,96.16,96.16,0,0,0-23.24,9.69L552.55,26.36V250.8L568,224.05Zm49.6,52.5a138.91,138.91,0,0,1-34.05-4.13,132.89,132.89,0,0,1-31-12v10.24h-40V5.62h40V15.86a142.09,142.09,0,0,1,31-11.94,139.37,139.37,0,0,1,70.89.72,138.93,138.93,0,0,1,83,63.6,138.45,138.45,0,0,1,14,33.14,138.92,138.92,0,0,1,0,73.58,138.75,138.75,0,0,1-63.78,82.73,140.31,140.31,0,0,1-33.15,13.93,136.91,136.91,0,0,1-36.84,4.93Zm-251,.29A94.28,94.28,0,0,1,338,272.53a95.81,95.81,0,0,1-25.14-12.12,93.68,93.68,0,0,1-20.29-18.67,96.81,96.81,0,0,1-14.18-23.8L315,202.68a57.59,57.59,0,0,0,8.44,13.92,55.86,55.86,0,0,0,26.57,18,55.82,55.82,0,0,0,38.25-1.88A55.83,55.83,0,0,0,418,203.14a53.93,53.93,0,0,0,4.4-21.65,54.48,54.48,0,0,0-4.4-21.72,55.5,55.5,0,0,0-29.71-29.71,54.36,54.36,0,0,0-21.73-4.41V86a92.48,92.48,0,0,1,37.17,7.54,95.94,95.94,0,0,1,50.81,50.82,95.17,95.17,0,0,1,0,74.25,96.21,96.21,0,0,1-50.81,50.72,92.65,92.65,0,0,1-37.17,7.54Zm0-85.83a91.85,91.85,0,0,1-37.08-7.54,96.46,96.46,0,0,1-50.72-50.72,91.85,91.85,0,0,1-7.54-37.08,92.48,92.48,0,0,1,7.54-37.17A96.18,96.18,0,0,1,329.47,7.68,92,92,0,0,1,366.55.14a94.45,94.45,0,0,1,53.59,16.44,96.8,96.8,0,0,1,20.29,18.67A95,95,0,0,1,454.71,59L418.08,74.3a59.49,59.49,0,0,0-8.35-13.91,54.06,54.06,0,0,0-11.85-11,56,56,0,0,0-14.73-7.1,54.77,54.77,0,0,0-16.6-2.51,53.85,53.85,0,0,0-21.64,4.4,55.8,55.8,0,0,0-29.63,29.71,54.48,54.48,0,0,0-4.39,21.73,53.84,53.84,0,0,0,4.39,21.64,56.13,56.13,0,0,0,29.63,29.62,53.68,53.68,0,0,0,21.64,4.4V191Zm-326,79.61H.55V5.62h40v113h141V5.62h40v265h-40v-113h-141v113Z"/><polygon class="cls-1" points="0.55 380.62 0.55 337.62 9.55 337.62 9.55 354.62 27.55 354.62 27.55 337.62 36.55 337.62 36.55 380.62 27.55 380.62 27.55 361.62 9.55 361.62 9.55 380.62 0.55 380.62 0.55 380.62"/><path class="cls-1" d="M51.85,365.2c0,3.15.75,5.57,2.24,7.24a7.33,7.33,0,0,0,11.06,0c1.49-1.67,2.23-4.11,2.23-7.3s-.74-5.51-2.23-7.18a7.33,7.33,0,0,0-11.06,0c-1.49,1.67-2.24,4.09-2.24,7.24Zm-8.62-.45a17.26,17.26,0,0,1,2.06-8.11,14.18,14.18,0,0,1,5.85-6,17.37,17.37,0,0,1,8.46-2.07,15.9,15.9,0,0,1,11.82,4.68A16.15,16.15,0,0,1,76,365.1a16.34,16.34,0,0,1-4.66,12,15.71,15.71,0,0,1-11.71,4.74,18.43,18.43,0,0,1-8.34-2,13.62,13.62,0,0,1-6-5.79,19.35,19.35,0,0,1-2.06-9.29Z"/><path class="cls-1" d="M110.32,358.7,102,360.2a6.07,6.07,0,0,0-1.89-3.74,5.77,5.77,0,0,0-3.85-1.25,6.24,6.24,0,0,0-5,2.16q-1.87,2.17-1.88,7.26c0,3.77.64,6.44,1.9,8A6.25,6.25,0,0,0,96.41,375a5.66,5.66,0,0,0,3.92-1.37,8.22,8.22,0,0,0,2.15-4.68l8.26,1.4a14.66,14.66,0,0,1-4.94,8.6q-3.64,2.89-9.78,2.89-7,0-11.12-4.39t-4.14-12.19q0-7.86,4.16-12.25t11.25-4.38q5.81,0,9.23,2.5a13.79,13.79,0,0,1,4.92,7.61Z"/><path class="cls-1" d="M124.55,337.62v15.27a13.08,13.08,0,0,1,15.31-3.69,8.74,8.74,0,0,1,3.59,2.75,9.77,9.77,0,0,1,1.65,3.71,32.12,32.12,0,0,1,.45,6.32v18.64h-8V363.84c0-3.33-.17-5.45-.51-6.34a4.31,4.31,0,0,0-1.81-2.15,6.27,6.27,0,0,0-3.26-.79,7.88,7.88,0,0,0-4,1,6,6,0,0,0-2.58,3.06,17.32,17.32,0,0,0-.82,6.06v16.92h-8v-44Z"/><path class="cls-1" d="M151.17,372l8.44-1.29a6.15,6.15,0,0,0,2.18,3.73,7.47,7.47,0,0,0,4.61,1.27,8.38,8.38,0,0,0,4.91-1.19,2.69,2.69,0,0,0,1.11-2.25,2.19,2.19,0,0,0-.6-1.58,6.83,6.83,0,0,0-2.81-1.12q-10.17-2.23-12.9-4.09a8.22,8.22,0,0,1-3.77-7.16,8.83,8.83,0,0,1,3.26-6.94q3.26-2.81,10.12-2.81,6.53,0,9.69,2.13a10.84,10.84,0,0,1,4.37,6.28l-7.93,1.46a4.87,4.87,0,0,0-1.93-2.84,7.14,7.14,0,0,0-4.06-1,9.08,9.08,0,0,0-4.75.93,2,2,0,0,0-1,1.7,1.88,1.88,0,0,0,.84,1.54c.76.55,3.37,1.34,7.86,2.35s7.6,2.27,9.37,3.75a7.77,7.77,0,0,1,2.64,6.25,9.64,9.64,0,0,1-3.65,7.52q-3.66,3.13-10.81,3.13-6.5,0-10.28-2.63a12.14,12.14,0,0,1-5-7.15Z"/><path class="cls-1" d="M215.93,358.7l-8.29,1.5a6,6,0,0,0-1.9-3.74,5.69,5.69,0,0,0-3.84-1.25,6.28,6.28,0,0,0-5,2.16q-1.87,2.17-1.87,7.26c0,3.77.64,6.44,1.91,8A6.21,6.21,0,0,0,202,375a5.68,5.68,0,0,0,3.93-1.37,8.22,8.22,0,0,0,2.15-4.68l8.26,1.4a14.71,14.71,0,0,1-4.94,8.6c-2.43,1.93-5.7,2.89-9.78,2.89q-7,0-11.12-4.39t-4.15-12.19q0-7.86,4.16-12.25t11.26-4.38c3.86,0,6.94.83,9.22,2.5a13.8,13.8,0,0,1,4.93,7.61Z"/><path class="cls-1" d="M230.55,337.62v15.27a13.08,13.08,0,0,1,15.31-3.69,8.85,8.85,0,0,1,3.6,2.75,10.09,10.09,0,0,1,1.65,3.71,33.11,33.11,0,0,1,.44,6.32v18.64h-9V363.84a25.4,25.4,0,0,0-.47-6.34,4.16,4.16,0,0,0-1.68-2.15,5.38,5.38,0,0,0-3-.79,6.85,6.85,0,0,0-3.71,1,5.83,5.83,0,0,0-2.38,3.06,18.33,18.33,0,0,0-.76,6.06v16.92h-8v-44Z"/><path class="cls-1" d="M280.55,381.62v-5a12.39,12.39,0,0,1-4.54,4,12.67,12.67,0,0,1-5.94,1.46,11.65,11.65,0,0,1-5.72-1.4,8.3,8.3,0,0,1-3.67-4,17.85,17.85,0,0,1-1.13-7V349.62h8v14.61c0,4.47.16,7.2.46,8.21a4.56,4.56,0,0,0,1.68,2.4,5.11,5.11,0,0,0,3.09.88,6.6,6.6,0,0,0,3.83-1.18,6.06,6.06,0,0,0,2.32-2.93q.61-1.75.62-8.58V349.62h9v32Z"/><polygon class="cls-1" points="297.55 381.62 297.55 337.62 305.55 337.62 305.55 381.62 297.55 381.62 297.55 381.62"/><path class="cls-1" d="M333.09,362.62a8.09,8.09,0,0,0-1.89-5.55,6.09,6.09,0,0,0-8.91.1,7.78,7.78,0,0,0-1.77,5.45Zm-.48,8.35,8.38,1.42a13.74,13.74,0,0,1-5.1,7,15,15,0,0,1-8.73,2.41c-5.53,0-9.61-1.8-12.27-5.41a18.26,18.26,0,0,1-3.14-11q0-7.89,4.13-12.37a13.61,13.61,0,0,1,10.45-4.48c4.72,0,8.46,1.57,11.19,4.69s4,7.9,3.92,14.34H320.37a8.52,8.52,0,0,0,2,5.83,6.36,6.36,0,0,0,4.84,2.07,5.16,5.16,0,0,0,3.33-1.08,6.59,6.59,0,0,0,2-3.47Z"/><path class="cls-1" d="M374.55,344.62v29h6.6a24,24,0,0,0,5.35-.42,8.08,8.08,0,0,0,3.57-1.82,9.34,9.34,0,0,0,2.31-4.23,28.85,28.85,0,0,0,.89-8,26.34,26.34,0,0,0-.89-7.78,10,10,0,0,0-2.51-4.24,8.43,8.43,0,0,0-4.09-2.07,40.91,40.91,0,0,0-7.26-.42Zm-9-7h16.24a31.69,31.69,0,0,1,8.37.84,14.73,14.73,0,0,1,6.63,4.06,19.08,19.08,0,0,1,4.21,7.12,32.56,32.56,0,0,1,1.44,10.41,28.9,28.9,0,0,1-1.35,9.36,19.41,19.41,0,0,1-4.72,7.77,15.62,15.62,0,0,1-6.24,3.52,26.91,26.91,0,0,1-7.86.92H365.55v-44Z"/><path class="cls-1" d="M426.55,343.62v-7h7v7Zm-13,0v-7h7v7Zm17,38v-5a12.23,12.23,0,0,1-4.54,4,12.67,12.67,0,0,1-5.94,1.46,11.62,11.62,0,0,1-5.72-1.4,8.3,8.3,0,0,1-3.67-4,17.85,17.85,0,0,1-1.13-7V349.62h8v14.61c0,4.47.16,7.2.46,8.21a4.56,4.56,0,0,0,1.68,2.4,5.11,5.11,0,0,0,3.09.88,6.6,6.6,0,0,0,3.83-1.18,6.06,6.06,0,0,0,2.32-2.93q.61-1.75.62-8.58V349.62h9v32Z"/><path class="cls-1" d="M444.05,372l8.44-1.29a6.16,6.16,0,0,0,2.19,3.73,7.41,7.41,0,0,0,4.61,1.27,8.35,8.35,0,0,0,4.9-1.19,2.69,2.69,0,0,0,1.11-2.25,2.19,2.19,0,0,0-.6-1.58,6.77,6.77,0,0,0-2.81-1.12q-10.18-2.23-12.9-4.09a8.22,8.22,0,0,1-3.77-7.16,8.8,8.8,0,0,1,3.26-6.94q3.27-2.81,10.12-2.81,6.51,0,9.69,2.13a10.79,10.79,0,0,1,4.37,6.28l-7.93,1.46a4.92,4.92,0,0,0-1.93-2.84,7.12,7.12,0,0,0-4.05-1,9.12,9.12,0,0,0-4.76.93,2,2,0,0,0-1,1.7,1.88,1.88,0,0,0,.84,1.54c.75.55,3.38,1.34,7.85,2.35s7.61,2.27,9.39,3.75a7.76,7.76,0,0,1,2.63,6.25,9.64,9.64,0,0,1-3.65,7.52q-3.64,3.13-10.8,3.13-6.5,0-10.28-2.63a12.11,12.11,0,0,1-5-7.15Z"/><path class="cls-1" d="M478.14,372l8.44-1.29a6.15,6.15,0,0,0,2.18,3.73,7.45,7.45,0,0,0,4.61,1.27,8.38,8.38,0,0,0,4.91-1.19,2.69,2.69,0,0,0,1.11-2.25,2.19,2.19,0,0,0-.6-1.58,6.83,6.83,0,0,0-2.82-1.12q-10.17-2.23-12.89-4.09a8.19,8.19,0,0,1-3.77-7.16,8.83,8.83,0,0,1,3.26-6.94c2.17-1.87,5.55-2.81,10.11-2.81,4.35,0,7.59.71,9.7,2.13a10.84,10.84,0,0,1,4.37,6.28l-7.93,1.46a4.92,4.92,0,0,0-1.93-2.84,7.14,7.14,0,0,0-4.06-1,9.14,9.14,0,0,0-4.76.93,2,2,0,0,0-.95,1.7,1.89,1.89,0,0,0,.83,1.54c.76.55,3.38,1.34,7.86,2.35s7.6,2.27,9.38,3.75a7.77,7.77,0,0,1,2.64,6.25,9.62,9.62,0,0,1-3.66,7.52q-3.65,3.13-10.8,3.13-6.5,0-10.28-2.63a12.14,12.14,0,0,1-4.95-7.15Z"/><path class="cls-1" d="M534.07,362.62a8.09,8.09,0,0,0-1.89-5.55,5.77,5.77,0,0,0-4.37-1.89,5.83,5.83,0,0,0-4.54,2,7.78,7.78,0,0,0-1.77,5.45Zm-.48,8.35,8.38,1.42a13.74,13.74,0,0,1-5.1,7,15,15,0,0,1-8.73,2.41q-8.29,0-12.26-5.41a18.2,18.2,0,0,1-3.15-11q0-7.89,4.13-12.37a13.62,13.62,0,0,1,10.45-4.48q7.1,0,11.19,4.69t3.92,14.34H521.35a8.52,8.52,0,0,0,2,5.83,6.38,6.38,0,0,0,4.85,2.07,5.15,5.15,0,0,0,3.32-1.08,6.65,6.65,0,0,0,2-3.47Z"/><polygon class="cls-1" points="549.55 381.62 549.55 337.62 557.55 337.62 557.55 381.62 549.55 381.62 549.55 381.62"/><path class="cls-1" d="M573,364.51c0,3.39.48,5.84,1.41,7.36a6.38,6.38,0,0,0,5.69,3.29,6.15,6.15,0,0,0,4.93-2.47q2-2.46,2-7.37,0-5.47-2-7.89A6.23,6.23,0,0,0,580,355a6.34,6.34,0,0,0-5,2.37c-1.34,1.59-2,4-2,7.11Zm22.55,17.11h-8v-5.2a12,12,0,0,1-9.85,5.38,12.1,12.1,0,0,1-9.38-4.41q-3.9-4.41-3.91-12.31,0-8.08,3.8-12.29a12.43,12.43,0,0,1,9.61-4.2c3.56,0,9.73,4.43,9.73,4.43v-15.4h8v44Z"/><path class="cls-1" d="M610.41,365.2c0,3.15.75,5.57,2.24,7.24a7.34,7.34,0,0,0,11.07,0c1.48-1.67,2.22-4.11,2.22-7.3s-.74-5.51-2.22-7.18a7.34,7.34,0,0,0-11.07,0c-1.49,1.67-2.24,4.09-2.24,7.24Zm-8.62-.45a17.16,17.16,0,0,1,2.07-8.11,14.13,14.13,0,0,1,5.85-6,17.31,17.31,0,0,1,8.45-2.07A15.85,15.85,0,0,1,630,353.27a16.19,16.19,0,0,1,4.61,11.83,16.37,16.37,0,0,1-4.65,12,15.74,15.74,0,0,1-11.72,4.74,18.39,18.39,0,0,1-8.33-2,13.52,13.52,0,0,1-6-5.79,19.24,19.24,0,0,1-2.07-9.29Z"/><path class="cls-1" d="M649.55,381.62h-9v-32h8v4.21a14.9,14.9,0,0,1,3.68-4.23,6.71,6.71,0,0,1,3.64-1,10.63,10.63,0,0,1,5.53,1.59l-2.6,7.32a7.4,7.4,0,0,0-3.95-1.37,4.63,4.63,0,0,0-3,1,6.69,6.69,0,0,0-1.93,3.52c-.47,1.7-.71,5.25-.38,10.65v10.35Z"/><path class="cls-1" d="M661.55,348.62h5v-2.39a16.47,16.47,0,0,1,.82-6,6.56,6.56,0,0,1,3-3.21,11,11,0,0,1,5.51-1.24,21.2,21.2,0,0,1,6.69,1.08l-1.08,5.86a15,15,0,0,0-3.67-.48,3.24,3.24,0,0,0-2.5.85,5.18,5.18,0,0,0-.75,3.28v2.24h6v7h-6v25h-8v-25h-5v-7Z"/><path class="cls-1" d="M30.55,410.62h6V436A29.38,29.38,0,0,1,35,446.47a12.76,12.76,0,0,1-5.48,6.33c-2.63,1.63-6.11,2.45-10.39,2.45a21.7,21.7,0,0,1-10.23-2.13A12.14,12.14,0,0,1,3.25,447q-1.69-4-1.7-11V410.62h6v25.32a24.66,24.66,0,0,0,1.07,8.43,8.07,8.07,0,0,0,3.67,4.17A12.72,12.72,0,0,0,18.64,450q6.43,0,9.18-2.89t2.73-11.17V410.62Z"/><path class="cls-1" d="M44.55,454.62v-32h5v4.56a11.42,11.42,0,0,1,10.13-5.28,13.35,13.35,0,0,1,5.29,1,8.29,8.29,0,0,1,3.6,2.73,10.32,10.32,0,0,1,1.68,4,31.34,31.34,0,0,1,.3,5.28v19.67h-5V435.29a13.61,13.61,0,0,0-.67-4.92,5.22,5.22,0,0,0-2.37-2.6,7.77,7.77,0,0,0-4-1A9.64,9.64,0,0,0,52.2,429c-1.76,1.46-2.65,4.21-2.65,8.28v17.36Z"/><path class="cls-1" d="M79.55,454.62v-32h5v32Zm0-38v-6h5v6Z"/><path class="cls-1" d="M101.33,454.62l-12.17-32h5.72l6.87,19.17c.75,2.07,1.42,4.21,2,6.44.48-1.68,1.16-3.71,2-6.08l7.11-19.53h5.57l-12.11,32Z"/><path class="cls-1" d="M127.23,435.62H145a10.79,10.79,0,0,0-2-6,8.26,8.26,0,0,0-6.67-3.11A8.54,8.54,0,0,0,130,429a9.78,9.78,0,0,0-2.8,6.64Zm17.69,9.28,5.56.69a13.57,13.57,0,0,1-4.87,7.57,14.72,14.72,0,0,1-9.1,2.69q-7,0-11.06-4.29c-2.73-2.87-4.08-6.88-4.08-12.05,0-5.35,1.37-9.49,4.13-12.45a14,14,0,0,1,10.71-4.43A13.56,13.56,0,0,1,146.62,427q4,4.33,4,12.21c0,.31,0,.79,0,1.43h-23.7c.2,3.49,1.19,6.17,3,8a8.81,8.81,0,0,0,6.65,2.78,8.25,8.25,0,0,0,5.06-1.56,10.35,10.35,0,0,0,3.32-5Z"/><path class="cls-1" d="M157.55,454.62v-32h4v5.05a22.72,22.72,0,0,1,3.91-4.46,6,6,0,0,1,3.46-1.08,10.44,10.44,0,0,1,5.53,1.74l-1.85,5a7.72,7.72,0,0,0-3.95-1.17,5.17,5.17,0,0,0-3.17,1.06,5.76,5.76,0,0,0-2,2.95,40.14,40.14,0,0,0-.92,6.28v16.63Z"/><path class="cls-1" d="M175.5,445.15l5.33-.84a7.46,7.46,0,0,0,2.5,4.91,8.67,8.67,0,0,0,5.73,1.7c2.47,0,4.31-.5,5.5-1.51a4.5,4.5,0,0,0,1.8-3.54,3.25,3.25,0,0,0-1.59-2.87,23.65,23.65,0,0,0-5.5-1.84,49.77,49.77,0,0,1-8.22-2.58,7.83,7.83,0,0,1-4.65-7.29,8.14,8.14,0,0,1,1-3.93,8.71,8.71,0,0,1,2.65-3,11.1,11.1,0,0,1,3.43-1.57,16.18,16.18,0,0,1,4.65-.65,18.32,18.32,0,0,1,6.57,1.08,8.85,8.85,0,0,1,4.17,2.92,11.41,11.41,0,0,1,1.86,4.92l-5.27.72a5.75,5.75,0,0,0-2.08-3.83,7.58,7.58,0,0,0-4.86-1.38c-2.48,0-4.24.41-5.3,1.23a3.57,3.57,0,0,0-1.58,2.88,3,3,0,0,0,.65,1.88,4.81,4.81,0,0,0,2.07,1.43c.54.21,2.12.66,4.76,1.38a66.45,66.45,0,0,1,8,2.5,8.09,8.09,0,0,1,3.55,2.83,7.92,7.92,0,0,1,1.29,4.6,9.12,9.12,0,0,1-1.57,5.08,10.2,10.2,0,0,1-4.54,3.68,16.45,16.45,0,0,1-6.7,1.3q-6.19,0-9.45-2.57a12,12,0,0,1-4.14-7.63Z"/><path class="cls-1" d="M208.55,454.62v-32h5v32Zm0-38v-6h5v6Z"/><path class="cls-1" d="M233.61,449.4l.72,4.75a16.85,16.85,0,0,1-3.8.48,8.09,8.09,0,0,1-4.24-.92,5.09,5.09,0,0,1-2.12-2.44c-.42-1-.62-3.13-.62-6.36V426.62h-5v-4h5v-7.86l5-3.23v11.09h5v4h-5v18.59a10.36,10.36,0,0,0,.26,3,2.23,2.23,0,0,0,.87,1.05,3.18,3.18,0,0,0,1.72.38,15.12,15.12,0,0,0,2.21-.2Z"/><path class="cls-1" d="M238.7,466.65l-.59-5.06a11.85,11.85,0,0,0,3.08.47,5.92,5.92,0,0,0,2.87-.59,4.91,4.91,0,0,0,1.77-1.68,27.73,27.73,0,0,0,1.64-4q.15-.45.48-1.32l-12.06-31.84h5.81L248.31,441c.86,2.34,1.62,4.79,2.3,7.36a75,75,0,0,1,2.22-7.24l6.79-18.53H265l-12.09,32.32a65.65,65.65,0,0,1-3,7.22,10.6,10.6,0,0,1-3.3,3.9,7.73,7.73,0,0,1-4.42,1.25,10.77,10.77,0,0,1-3.48-.66Z"/><path class="cls-1" d="M287.08,438.75c0,4.07.89,7.11,2.67,9.14a8.87,8.87,0,0,0,13.37,0q2.67-3.06,2.67-9.3c0-3.94-.9-6.91-2.69-8.94a8.46,8.46,0,0,0-6.65-3,8.55,8.55,0,0,0-6.7,3q-2.67,3-2.67,9.14Zm-5.53,0q0-8.83,4.9-13.09a14.82,14.82,0,0,1,10-3.53,14.28,14.28,0,0,1,10.71,4.3q4.17,4.29,4.16,11.86c0,4.09-.62,7.31-1.84,9.66a13.06,13.06,0,0,1-5.36,5.46,15.61,15.61,0,0,1-7.67,1.94,14.32,14.32,0,0,1-10.79-4.27q-4.11-4.29-4.11-12.33Z"/><path class="cls-1" d="M318.55,454.62v-28h-5v-4h6v-3.37a15.68,15.68,0,0,1,.53-4.77,6.82,6.82,0,0,1,2.56-3.39,8.71,8.71,0,0,1,5.12-1.3,23.06,23.06,0,0,1,4.7.54L331.7,415a15.72,15.72,0,0,0-3-.3,4.18,4.18,0,0,0-3.24,1.06c-.64.69-.95,2-.95,3.91v2.93h6v4h-6v28h-6Z"/><path class="cls-1" d="M360.22,436.62h14.87l-4.58-12.15q-2.08-5.52-3.11-9.1a54.31,54.31,0,0,1-2.36,8.38l-4.82,12.87Zm-12.72,18,16.9-44h6.27l18,44h-7l-5-13H358.75l-4.72,13Z"/><path class="cls-1" d="M397.45,438.93c0,4.08.83,7.11,2.48,9.06a7.62,7.62,0,0,0,6,2.93,7.77,7.77,0,0,0,6.14-3q2.57-3,2.56-9.42,0-6.08-2.5-9.1a7.5,7.5,0,0,0-6-3,7.72,7.72,0,0,0-6.09,3.21c-1.77,2.15-2.65,5.26-2.65,9.36Zm-4.9,27.69v-44h5V427a11.12,11.12,0,0,1,3.85-3.63,10.72,10.72,0,0,1,5.29-1.22,12.53,12.53,0,0,1,7.19,2.1,12.94,12.94,0,0,1,4.7,5.91,21.7,21.7,0,0,1,1.58,8.37,21.37,21.37,0,0,1-1.75,8.78,13.29,13.29,0,0,1-12.1,8.06,10.07,10.07,0,0,1-4.83-1.14,11,11,0,0,1-2.93-2.87v15.28h-6Z"/><path class="cls-1" d="M431.53,438.93c0,4.08.83,7.11,2.49,9.06a7.6,7.6,0,0,0,6,2.93,7.79,7.79,0,0,0,6.15-3c1.7-2,2.56-5.17,2.56-9.42q0-6.08-2.5-9.1a7.54,7.54,0,0,0-6-3,7.73,7.73,0,0,0-6.09,3.21c-1.76,2.15-2.65,5.26-2.65,9.36Zm-5,27.69v-44h5V427a12.06,12.06,0,0,1,3.93-3.63,10.76,10.76,0,0,1,5.3-1.22,12.55,12.55,0,0,1,7.18,2.1,12.82,12.82,0,0,1,4.7,5.91,21.71,21.71,0,0,1,1.59,8.37,21.05,21.05,0,0,1-1.76,8.78,13.29,13.29,0,0,1-12.1,8.06,10.2,10.2,0,0,1-4.84-1.14,12.15,12.15,0,0,1-3-2.87v15.28h-6Z"/><polygon class="cls-1" points="460.55 454.62 460.55 410.62 465.55 410.62 465.55 454.62 460.55 454.62 460.55 454.62"/><path class="cls-1" d="M474.55,454.62v-32h5v32Zm0-38v-6h5v6Z"/><path class="cls-1" d="M492,435.62h17.75a10.79,10.79,0,0,0-2-6,8.26,8.26,0,0,0-6.67-3.11,8.54,8.54,0,0,0-6.24,2.49,9.83,9.83,0,0,0-2.8,6.64Zm17.69,9.28,5.56.69a13.57,13.57,0,0,1-4.87,7.57,14.7,14.7,0,0,1-9.1,2.69q-7,0-11.06-4.29t-4.08-12.05c0-5.35,1.37-9.49,4.13-12.45A14,14,0,0,1,501,422.63,13.56,13.56,0,0,1,511.43,427q4.05,4.33,4,12.21c0,.31,0,.79,0,1.43h-23.7c.21,3.49,1.19,6.17,3,8a8.79,8.79,0,0,0,6.64,2.78,8.25,8.25,0,0,0,5.06-1.56,10.28,10.28,0,0,0,3.32-5Z"/><path class="cls-1" d="M525.65,438.77c0,4.07.85,7.12,2.57,9.13a7.78,7.78,0,0,0,6.08,3,7.56,7.56,0,0,0,6-2.89c1.66-1.92,2.48-4.85,2.48-8.81q0-6.53-2.51-9.57a7.74,7.74,0,0,0-6.2-3,7.43,7.43,0,0,0-6,2.93q-2.41,2.93-2.41,9.24Zm15.9,15.85v-4s-3.85,4.73-7.76,4.73a12.45,12.45,0,0,1-7-2.1,13.72,13.72,0,0,1-4.94-5.84,20.35,20.35,0,0,1-1.75-8.64,22.52,22.52,0,0,1,1.59-8.63,12.48,12.48,0,0,1,4.76-5.94,12.74,12.74,0,0,1,7.09-2.07,10.61,10.61,0,0,1,5.12,1.22,14.41,14.41,0,0,1,3.88,3.15V410.62h5v44h-6Z"/><path class="cls-1" d="M571.89,440.54l5.47-.48a12.1,12.1,0,0,0,1.81,5.4,9.88,9.88,0,0,0,4.42,3.41,16.66,16.66,0,0,0,6.73,1.31,16.19,16.19,0,0,0,5.87-1,8.07,8.07,0,0,0,3.78-2.7,6.28,6.28,0,0,0,1.24-3.76,5.73,5.73,0,0,0-1.19-3.6,8.94,8.94,0,0,0-4-2.59,77.27,77.27,0,0,0-7.8-2.14,39.59,39.59,0,0,1-8.47-2.74,11.94,11.94,0,0,1-4.69-4.08,10,10,0,0,1-1.54-5.46,11.16,11.16,0,0,1,1.89-6.22,11.68,11.68,0,0,1,5.5-4.38,20.8,20.8,0,0,1,8-1.49,22,22,0,0,1,8.61,1.57,12.41,12.41,0,0,1,5.73,4.62,13.33,13.33,0,0,1,2.15,6.92l-5.57.41a9,9,0,0,0-3-6.28c-1.73-1.42-4.27-2.13-7.65-2.13s-6.07.65-7.67,1.93a5.8,5.8,0,0,0-2.42,4.65,5,5,0,0,0,1.71,3.89c1.11,1,4,2.06,8.75,3.13a57.38,57.38,0,0,1,9.71,2.8A13.35,13.35,0,0,1,605,436a10.9,10.9,0,0,1,1.83,6.24,11.81,11.81,0,0,1-2,6.6,13.17,13.17,0,0,1-5.76,4.82,20,20,0,0,1-8.46,1.72,25.35,25.35,0,0,1-10-1.73,14,14,0,0,1-6.32-5.23,14.83,14.83,0,0,1-2.4-7.88Z"/><path class="cls-1" d="M634.79,443l5.3.68a13.75,13.75,0,0,1-4.45,8.57,12.94,12.94,0,0,1-8.79,3.1,13.64,13.64,0,0,1-10.48-4.26q-4-4.27-4-12.22a22.13,22.13,0,0,1,1.71-9,12,12,0,0,1,5.19-5.79,15.52,15.52,0,0,1,7.59-1.93,13.18,13.18,0,0,1,8.47,2.62,12.06,12.06,0,0,1,4.22,7.44l-5.24.81a8.65,8.65,0,0,0-2.65-4.82,6.85,6.85,0,0,0-4.59-1.62,8.39,8.39,0,0,0-6.62,2.92c-1.7,1.95-2.54,5-2.54,9.23s.82,7.37,2.45,9.31a8,8,0,0,0,6.41,2.9,7.55,7.55,0,0,0,5.29-1.94,9.7,9.7,0,0,0,2.7-6Z"/><path class="cls-1" d="M644.55,454.62v-32h5v32Zm0-38v-6h5v6Z"/><path class="cls-1" d="M662.38,435.62h17.75a10.79,10.79,0,0,0-2-6,8.27,8.27,0,0,0-6.67-3.11,8.53,8.53,0,0,0-6.24,2.49,9.78,9.78,0,0,0-2.8,6.64Zm17.68,9.28,5.57.69a13.64,13.64,0,0,1-4.88,7.57,14.65,14.65,0,0,1-9.09,2.69c-4.65,0-8.33-1.43-11.07-4.29s-4.08-6.88-4.08-12.05c0-5.35,1.38-9.49,4.13-12.45a14,14,0,0,1,10.72-4.43A13.56,13.56,0,0,1,681.77,427q4.05,4.33,4,12.21c0,.31,0,.79,0,1.43h-23.7c.21,3.49,1.19,6.17,3,8a8.81,8.81,0,0,0,6.65,2.78,8.2,8.2,0,0,0,5-1.56,10.21,10.21,0,0,0,3.32-5Z"/><path class="cls-1" d="M692.55,454.62v-32h5v4.56a11.41,11.41,0,0,1,10.12-5.28,13.36,13.36,0,0,1,5.3,1,8.29,8.29,0,0,1,3.6,2.73,10.47,10.47,0,0,1,1.68,4,31.34,31.34,0,0,1,.3,5.28v19.67h-6V435.29a14.49,14.49,0,0,0-.63-4.92,5.09,5.09,0,0,0-2.22-2.6,6.93,6.93,0,0,0-3.74-1A8.68,8.68,0,0,0,700,429c-1.66,1.46-2.49,4.21-2.49,8.28v17.36Z"/><path class="cls-1" d="M747.22,443l5.29.68a13.73,13.73,0,0,1-4.43,8.57,13,13,0,0,1-8.79,3.1,13.65,13.65,0,0,1-10.49-4.26q-4-4.27-4-12.22a22.3,22.3,0,0,1,1.7-9,11.92,11.92,0,0,1,5.2-5.79,15.42,15.42,0,0,1,7.58-1.93,13.18,13.18,0,0,1,8.47,2.62,12,12,0,0,1,4.21,7.44l-5.23.81a8.65,8.65,0,0,0-2.65-4.82,6.85,6.85,0,0,0-4.59-1.62,8.39,8.39,0,0,0-6.62,2.92c-1.69,1.95-2.54,5-2.54,9.23s.81,7.37,2.46,9.31a8,8,0,0,0,6.4,2.9,7.58,7.58,0,0,0,5.3-1.94,9.69,9.69,0,0,0,2.69-6Z"/><path class="cls-1" d="M761.19,435.62h17.75a10.79,10.79,0,0,0-2-6,8.29,8.29,0,0,0-6.68-3.11A8.56,8.56,0,0,0,764,429a9.87,9.87,0,0,0-2.8,6.64Zm17.69,9.28,5.56.69a13.57,13.57,0,0,1-4.87,7.57,14.7,14.7,0,0,1-9.1,2.69q-7,0-11.06-4.29t-4.08-12.05c0-5.35,1.37-9.49,4.13-12.45a14,14,0,0,1,10.71-4.43A13.56,13.56,0,0,1,780.58,427q4,4.33,4,12.21c0,.31,0,.79,0,1.43H760.9c.2,3.49,1.18,6.17,3,8a8.79,8.79,0,0,0,6.64,2.78,8.25,8.25,0,0,0,5.06-1.56,10.28,10.28,0,0,0,3.32-5Z"/><path class="cls-1" d="M789.05,445.15l5.33-.84a7.46,7.46,0,0,0,2.5,4.91,8.7,8.7,0,0,0,5.73,1.7c2.48,0,4.31-.5,5.51-1.51a4.52,4.52,0,0,0,1.79-3.54,3.24,3.24,0,0,0-1.58-2.87,23.8,23.8,0,0,0-5.51-1.84,49.56,49.56,0,0,1-8.21-2.58,8.13,8.13,0,0,1-3.68-11.22,8.61,8.61,0,0,1,2.65-3,11,11,0,0,1,3.42-1.57,16.28,16.28,0,0,1,4.65-.65,18.35,18.35,0,0,1,6.57,1.08,8.93,8.93,0,0,1,4.18,2.92,11.54,11.54,0,0,1,1.85,4.92l-5.27.72a5.78,5.78,0,0,0-2.07-3.83,7.61,7.61,0,0,0-4.87-1.38q-3.7,0-5.3,1.23a3.6,3.6,0,0,0-1.58,2.88,3,3,0,0,0,.66,1.88,4.71,4.71,0,0,0,2.06,1.43c.54.21,2.12.66,4.76,1.38a66.77,66.77,0,0,1,8,2.5,8.11,8.11,0,0,1,3.54,2.83,7.78,7.78,0,0,1,1.29,4.6,9,9,0,0,1-1.58,5.08,10.06,10.06,0,0,1-4.53,3.68,16.45,16.45,0,0,1-6.7,1.3q-6.2,0-9.44-2.57a12,12,0,0,1-4.15-7.63Z"/></g></g></svg>