<svg xmlns="http://www.w3.org/2000/svg" viewBox="0 0 1151 861"><defs><style>.cls-1,.cls-3{fill:#fff;}.cls-1,.cls-4,.cls-5{stroke:#ccc;stroke-width:16px;}.cls-1,.cls-2,.cls-5{stroke-linejoin:round;}.cls-2,.cls-4,.cls-5{fill:none;}.cls-2{stroke:#4d4d4d;stroke-width:15px;}.cls-2,.cls-5{stroke-linecap:round;}.cls-6{fill:#ccc;}</style></defs><title>finger-slider</title><g id="handbased"><line class="cls-1" x1="212.72" y1="348.67" x2="241.65" y2="367.09"/><path class="cls-2" d="M541.09,464.73s6.27-16.8,10.27-26.11,6.08-23.88,14.26-35.42,17.76-23.84,17.76-23.84"/><path class="cls-2" d="M592.34,166.14S569,148,552.78,137.4c-23.19-15.09-43.76-21.46-54.65-31.79-9.81-9.29-23.09-16.36-43.66-17.93-21.92-1.67-92.24-8.13-139.8-13.21s-100.61-3.66-109.73-.58-18.79,11.83-16.17,30.17,24.32,35.44,54.1,37.47,45.11,5.06,63.63,9.52"/><path class="cls-2" d="M261.53,72.36S245.89,70,232.4,68.2s-27.55,2.15-27.55,2.15L205.14,81s13.46-1.22,25.4-2.81C243.94,76.38,261.53,72.36,261.53,72.36Z"/><path class="cls-2" d="M121.09,226.29c46.89-19.67,185.07-73.73,206-84.92s37.21-10.91,61.42-5.9,90.38,18.09,148.64,26.42,113.27.48,143.34,13.12,42,35,90.24,91.7S903.46,411.06,963,465.37s158.93,92.68,158.93,92.68"/><path class="cls-2" d="M344.16,253.37c-18.52-4.45-51.32,8.55-85,19.37S153.82,303.9,124.33,312.48s-50-16.35-59.59-31,3.61-23.46,3.61-23.46"/><path class="cls-2" d="M117.75,226.3s-17.49,7.55-31.44,15a185.55,185.55,0,0,0-20.19,12.58L71.89,258a11.87,11.87,0,0,0,6.42,1.95s11.07-9.5,18.7-15.37S117.75,226.3,117.75,226.3Z"/><path class="cls-2" d="M422.76,382c21.37-3.58,36.37-8,44.28-12.22C478.2,363.8,480,350.3,480,350.3s-7.34,16.48,3.46,23.26,14.53,13.77,27.93,12,27.3,18.07,39.47,20.17c17.78,3.06,32.56-26.36,32.56-26.36"/><path class="cls-2" d="M228.39,405.92C219,425.29,204.88,517,199.12,539.79s9.88,25.22,23.38,27,37.41-3.84,55.07-31.21c5.86-9.07,12.46-21.88,19-35.75"/><path class="cls-2" d="M717.77,244.78s-26.46-36.09-47.31-48.27-41.43-13.74-82.09.81-89.23,24.35-141.9,39.93-85.89,17.18-108.41,22-34.14,20-45.57,42.29c-3.69,7.18-11.21,20.16-20,35.09"/><path class="cls-2" d="M977.74,828.79s-57.83-44.45-90.88-62.67-80.51,9.52-173.4-25.75c-92.26-35-141.79-60.58-187.32-95.45s-45.92-49-87.53-69.83-81.91-19-113.21-50.74S253,439.24,243.89,415.42s-9.53-64.86,38.3-76.06,108.35,28.22,147.17,50.53,45.92,49,81,64.34,54.39,9.5,85.45,18.93a302.07,302.07,0,0,1,63,27.32"/><path class="cls-2" d="M280.41,456.91s-23.1-16.37-31.11-24.65-25.71-34.69-13-61.23,34.5-32.78,45.95-28.13,31,21.1,28.5,33.2S298.61,397,291.36,417C285.64,432.79,280.41,456.91,280.41,456.91Z"/><line class="cls-3" x1="88.88" y1="533.21" x2="177.12" y2="550.65"/><line class="cls-3" x1="508.01" y1="99.73" x2="533.44" y2="186.01"/><polyline class="cls-4" points="210.27 318.2 283.26 208.74 515.14 145.85"/><polyline class="cls-4" points="134.39 541.18 158.77 395.43 184.96 356.14"/><line class="cls-4" x1="88.88" y1="533.21" x2="177.12" y2="550.65"/><line class="cls-4" x1="508.01" y1="99.73" x2="533.44" y2="186.01"/><circle class="cls-5" cx="197.54" cy="337.04" r="20.57"/><path class="cls-6" d="M61.26,512a30.24,30.24,0,0,0-5.3-9.87,22.86,22.86,0,0,0-18.29-8.4,23,23,0,0,0-10.22,2.38,23.51,23.51,0,0,0-7.91,6.46,29.81,29.81,0,0,0-5.1,10,42,42,0,0,0-1.71,13,42.68,42.68,0,0,0,2,12.91,30.31,30.31,0,0,0,5.35,9.9,23.27,23.27,0,0,0,8.06,6.31,23,23,0,0,0,10.27,2.13,23.13,23.13,0,0,0,10.18-2.37,22.84,22.84,0,0,0,7.91-6.51,30.67,30.67,0,0,0,5.06-10A45.79,45.79,0,0,0,61.26,512Zm-13.95,20.3a22.07,22.07,0,0,1-1.91,5.64,10.53,10.53,0,0,1-3.08,3.72A7,7,0,0,1,38.26,543a6.84,6.84,0,0,1-4.13-1.26A10.67,10.67,0,0,1,31,538.09a20.81,20.81,0,0,1-2.08-5.59,32.87,32.87,0,0,1-.8-7.19,34.51,34.51,0,0,1,.62-7.17,20.49,20.49,0,0,1,1.95-5.64,11.08,11.08,0,0,1,3.08-3.67,6.89,6.89,0,0,1,4.1-1.36,7,7,0,0,1,4.09,1.26,10.37,10.37,0,0,1,3.17,3.6,21.33,21.33,0,0,1,2,5.59,33.21,33.21,0,0,1,.8,7.15A34.35,34.35,0,0,1,47.31,532.28Z"/><polygon class="cls-6" points="490.84 16.29 490.75 29.42 499.45 29.48 499.12 76 514.62 76.11 515.05 16.46 490.84 16.29"/></g></svg>