<svg id="Layer_1" data-name="Layer 1" xmlns="http://www.w3.org/2000/svg" xmlns:xlink="http://www.w3.org/1999/xlink" viewBox="0 0 340 508"><defs><style>.cls-1,.cls-17{fill:none;}.cls-11,.cls-12,.cls-2{fill:#fff;}.cls-3{fill:#a6a9af;}.cls-4{fill:#909398;}.cls-5{fill:#777b80;}.cls-6{fill:#cccfd4;}.cls-7{fill:#616469;}.cls-11,.cls-12,.cls-13,.cls-18,.cls-8,.cls-9{isolation:isolate;}.cls-10,.cls-8{font-size:12px;}.cls-10,.cls-12,.cls-8{font-family:ArialMT, Arial;}.cls-11,.cls-9{font-size:14px;font-family:Arial-BoldMT, Arial;font-weight:700;}.cls-9{fill:#353535;}.cls-12{font-size:18px;}.cls-13,.cls-14{fill:#0a50a1;}.cls-13,.cls-18{opacity:0.5;}.cls-15{clip-path:url(#clip-path);}.cls-16,.cls-18{fill:#ff8000;}.cls-17{stroke:#000;}</style><clipPath id="clip-path"><rect class="cls-1" x="20" y="360" width="300" height="128"/></clipPath></defs><title>portfolio</title><rect class="cls-2" width="340" height="340"/><rect class="cls-3" x="40" width="96" height="96"/><rect class="cls-4" x="40" y="102" width="96" height="96"/><rect class="cls-5" x="40" y="204" width="96" height="96"/><rect class="cls-6" x="142" width="96" height="96"/><rect class="cls-3" x="142" y="102" width="96" height="96"/><rect class="cls-4" x="142" y="204" width="96" height="96"/><rect class="cls-6" x="244" width="96" height="96"/><rect class="cls-6" x="244" y="102" width="96" height="96"/><rect class="cls-3" x="244" y="204" width="96" height="96"/><rect class="cls-7" y="306" width="34" height="34"/><rect class="cls-7" x="40" y="306" width="300" height="34"/><rect class="cls-7" width="34" height="300"/><text class="cls-8" transform="translate(80 35.12)"><tspan xml:space="preserve">                 </tspan></text><text class="cls-9" transform="translate(80 35.12)">zu</text><text class="cls-10" transform="translate(95.55 35.12)"><tspan xml:space="preserve">                 </tspan></text><text class="cls-9" transform="translate(65.16 51.98)">selbst-</text><text class="cls-10" transform="translate(110.29 51.98)"><tspan xml:space="preserve">                 </tspan></text><text class="cls-9" transform="translate(57.36 68.84)">orientiert</text><text class="cls-10" transform="translate(118.04 68.84)"><tspan xml:space="preserve">             </tspan></text><text class="cls-8" transform="translate(167.02 45.66)"><tspan xml:space="preserve">                 </tspan></text><text class="cls-9" transform="translate(167.02 45.66)">selbst-</text><text class="cls-10" transform="translate(212.14 45.66)"><tspan xml:space="preserve">                 </tspan></text><text class="cls-9" transform="translate(159.22 62.52)">orientiert</text><text class="cls-10" transform="translate(219.89 62.52)"><tspan xml:space="preserve">             </tspan></text><text class="cls-9" transform="translate(263.41 52.68)">begehrt</text><text class="cls-9" transform="translate(165.07 156.88)">neutral</text><text class="cls-8" transform="translate(254.83 146.34)"><tspan xml:space="preserve">                 </tspan></text><text class="cls-9" transform="translate(254.83 146.34)">handlungs-</text><text class="cls-10" transform="translate(330.27 146.34)"><tspan xml:space="preserve">                 </tspan></text><text class="cls-9" transform="translate(262.24 163.2)">orientiert</text><text class="cls-10" transform="translate(322.91 163.2)"><tspan xml:space="preserve">             </tspan></text><text class="cls-8" transform="translate(287.22 242.34)"><tspan xml:space="preserve">                 </tspan></text><text class="cls-9" transform="translate(287.22 242.34)">zu</text><text class="cls-10" transform="translate(302.77 242.34)"><tspan xml:space="preserve">                 </tspan></text><text class="cls-9" transform="translate(257.18 259.2)">handlungs-</text><text class="cls-10" transform="translate(332.61 259.2)"><tspan xml:space="preserve">                 </tspan></text><text class="cls-9" transform="translate(264.58 276.06)">orientiert</text><text class="cls-10" transform="translate(325.26 276.06)"><tspan xml:space="preserve">             </tspan></text><text class="cls-11" transform="translate(49.95 259.9)">체berfl체ssig</text><text class="cls-12" transform="translate(23.41 251.55) rotate(-90)">hedonische Qualit채t (HQ)</text><text class="cls-12" transform="translate(80.96 328.8)">pragmatische Qualit채t (PQ)</text><rect class="cls-13" x="205" y="32" width="89" height="63"/><rect class="cls-14" x="246" y="60" width="7" height="7"/><g class="cls-15"><g id="legend"><rect class="cls-14" x="30" y="369" width="7" height="7"/><text class="cls-8" transform="translate(47 376)">Produkt:Handbasiertes Sculpting (n=9)</text><text class="cls-8" transform="translate(47 396)">PQ:1,19 Konfidenz:0,89</text><text class="cls-8" transform="translate(47 416)">HQ:1,75 Konfidenz:0,61</text><rect class="cls-16" x="30" y="433" width="7" height="7"/><text class="cls-8" transform="translate(47 440)">Produkt:Controllerbasiertes Sculpting (n=9)</text><text class="cls-8" transform="translate(47 460)">PQ:2,08 Konfidenz:0,52</text><text class="cls-8" transform="translate(47 480)">HQ:1,42 Konfidenz:0,57</text></g></g><rect id="legendBorder" class="cls-17" x="10" y="350" width="320" height="148"/><rect class="cls-18" x="268" y="51" width="51" height="57"/><rect class="cls-16" x="290" y="76" width="7" height="7"/></svg>